<svg id="Layer_1" data-name="Layer 1" xmlns="http://www.w3.org/2000/svg" viewBox="0 0 38.09 31.28"><path d="M2.84,32.26c.06-.33.12-.65.19-1" transform="translate(-2.34 -1.48)" style="fill:none;stroke:#dadada;stroke-linecap:round;stroke-linejoin:round"/><path d="M3.47,29.4A32.1,32.1,0,0,1,38,5.88" transform="translate(-2.34 -1.48)" style="fill:none;stroke:#dadada;stroke-linecap:round;stroke-linejoin:round;stroke-dasharray:1.9346270561218262,1.9346270561218262"/><path d="M39,6l1,.15s-.36,0-1,.14" transform="translate(-2.34 -1.48)" style="fill:none;stroke:#dadada;stroke-linecap:round;stroke-linejoin:round"/><path d="M37.12,6.71a22.88,22.88,0,0,0-6,2.65" transform="translate(-2.34 -1.48)" style="fill:none;stroke:#dadada;stroke-linecap:round;stroke-linejoin:round;stroke-dasharray:1.88383948802948,1.88383948802948"/><path d="M30.31,9.89c-.27.18-.54.38-.81.58" transform="translate(-2.34 -1.48)" style="fill:none;stroke:#dadada;stroke-linecap:round;stroke-linejoin:round"/><path d="M-146.1,15.1" transform="translate(-2.34 -1.48)" style="fill:none;stroke:#1d1d1b;stroke-miterlimit:10"/><path d="M39.94,6.16S34.52,2.15,29.12,2" transform="translate(-2.34 -1.48)" style="fill:none;stroke:#dadada;stroke-linecap:round;stroke-linejoin:round;stroke-dasharray:2"/></svg>